<?xml version="1.0" encoding="UTF-8"?>
<svg id="layer1" xmlns="http://www.w3.org/2000/svg" viewBox="0 0 619 181">
  <g id="group1">
    <polygon points="113.66 101.63 167.7 112.43 221.74 101.63 221.74 82.18 167.7 71.38 113.66 82.18 113.66 101.63"/>
    <path d="M599,0H20C8.95,0,0,8.95,0,20V161c0,11.05,8.95,20,20,20H599c11.05,0,20-8.95,20-20V20c0-11.05-8.95-20-20-20Zm-71.41,48.21h58.33v58.62l-10.08,.05V57.39l-38.6-.05v49.48h-9.65V48.21Zm-216.63,71.38l-143.27,30.74L24.43,119.58l.02-55.35,143.24-30.74,143.27,30.74v55.36Zm153.86-60.41h-13.67V124.12c0,8.1-6.59,14.68-14.68,14.68h-22.32l-1.87-10.62h24.19c2.24,0,4.06-1.82,4.06-4.06V59.18h-92.58v-10.62h116.87v10.62Zm-106.62,58.98v-43.13h54.64v43.13h-54.64Zm145.25-6.82c-6.59,9.64-13.38,20.26-21.7,28.72l-7.65-7.1c8.88-9.65,15.46-20.45,22.41-30.9-6.6-8.38-12.87-18.15-18.09-25.55l8.21-4.74c1.39,2,10.91,15.96,15.48,21.92,3.48-9.03,6.88-22.33,8.68-32.69h-34.97v-9.66h46.62s-.13,1.78-.13,1.78c-2.32,18.39-7.21,35.08-13.13,49.01,5.65,8.17,9.34,13.41,13.56,19.11l-9.67,3.54c-3.19-4.34-8.94-12.52-9.62-13.43Zm90.08,29.74h-22.46c-8.17,0-15.02-2.5-15.02-14v-13.9c-5.08,17.64-28.54,28.46-40.74,28.46,0,0-.13-9.91-.18-10.31,32.05-5.19,36.33-31.44,36.33-46.23v-19.61h10.13v19.84c0,6.24-.64,13.37-2.83,20.62h7.73v21.51c0,2.9,1.03,3.79,3.99,3.79h25.35l-2.3,9.84Z"/>
    <rect x="368.83" y="85.66" width="33.39" height="21.88"/>
  </g>
</svg>